<svg width="49" height="49" viewBox="0 0 49 49" fill="none" xmlns="http://www.w3.org/2000/svg">
<rect width="48.4653" height="48.4653" rx="24.2327" fill="white"/>
<path d="M11.8403 19.0928H11.749V19.1786V38.0994V38.1852H11.8403H17.5324H17.6236V38.0994V19.1786V19.0928H17.5324H11.8403Z" fill="#3D3A41"/>
<path d="M37.7795 21.02C36.6554 19.7589 35.0468 19.0928 33.127 19.0928C30.3807 19.0928 28.7384 20.5167 28.0034 21.3662L27.5661 21.8714V19.5151H27.4823L22.1121 19.5229H22.0293V38.1852H27.5757V27.3789C27.5757 26.9186 27.6143 26.2739 27.7973 25.8145C28.3569 24.3028 29.56 23.4016 31.0155 23.4016C33.1068 23.4016 34.2588 24.9689 34.2588 27.8149V38.1852H39.6531V27.0922C39.6531 24.4569 39.0231 22.4146 37.7795 21.02Z" fill="#3D3A41"/>
<path d="M14.6863 10.2804C13.067 10.2804 11.749 11.5982 11.749 13.2182C11.749 14.8382 13.067 16.155 14.6863 16.155C16.3056 16.155 17.6236 14.8372 17.6236 13.2182C17.6236 11.5991 16.3066 10.2804 14.6863 10.2804Z" fill="#3D3A41"/>
</svg>
